<svg version="1.1" id="Layer_1" xmlns="http://www.w3.org/2000/svg" xmlns:xlink="http://www.w3.org/1999/xlink" x="0px" y="0px"
	 width="100%" viewBox="0 0 3359 1619" enable-background="new 0 0 3359 1619" xml:space="preserve">
<path fill="#000000" opacity="1.000000" stroke="none" 
	d="
M1958.000000,1622.000000 
	C1305.333374,1622.000000 653.666687,1622.000000 2.000000,1622.000000 
	C2.000000,1082.000000 2.000000,542.000000 2.000000,2.000000 
	C1122.000000,2.000000 2242.000000,2.000000 3362.000000,2.000000 
	C3362.000000,542.000000 3362.000000,1082.000000 3362.000000,1622.000000 
	C2894.333252,1622.000000 2426.666748,1622.000000 1958.000000,1622.000000 
M2323.327393,765.445862 
	C2330.150391,756.580933 2328.693604,751.744324 2318.359863,749.280212 
	C2315.156250,748.516357 2311.887939,747.997925 2308.629150,747.499023 
	C2292.606689,745.046143 2276.577881,742.634277 2260.550537,740.214111 
	C2241.270020,737.302917 2221.985352,734.417969 2202.708008,731.484985 
	C2181.125244,728.201111 2159.545166,724.896790 2137.973389,721.540466 
	C2135.524902,721.159485 2133.137451,720.384888 2130.500244,719.738525 
	C2131.242432,718.587524 2131.464111,717.796509 2131.963867,717.533752 
	C2148.081055,709.056702 2164.144775,700.471924 2180.388184,692.241882 
	C2196.638916,684.007996 2213.113770,676.218567 2229.413574,668.079651 
	C2242.471680,661.559326 2255.426025,654.830078 2268.404785,648.151489 
	C2279.896973,642.237915 2291.396240,636.335205 2302.799072,630.253540 
	C2304.743896,629.216309 2306.882812,627.620850 2307.789551,625.734253 
	C2310.404541,620.290771 2306.772949,615.024170 2300.067383,615.700378 
	C2281.281738,617.594910 2262.535889,619.989441 2243.843018,622.667297 
	C2228.788818,624.823853 2213.837891,627.697571 2198.835693,630.222168 
	C2183.214355,632.851013 2167.622559,635.687317 2151.951904,637.981995 
	C2136.300293,640.273804 2120.567139,642.007263 2103.491943,644.159180 
	C2110.844971,637.068970 2117.310791,631.033142 2123.553711,624.774902 
	C2139.006104,609.284729 2154.225098,593.559875 2169.778320,578.172302 
	C2193.429443,554.773071 2217.287842,531.583557 2241.041748,508.288208 
	C2242.464600,506.892822 2244.027588,505.522034 2245.037598,503.845764 
	C2248.477051,498.136475 2245.289307,491.713623 2238.669189,491.795868 
	C2234.836426,491.843506 2230.698486,493.012512 2227.258057,494.772186 
	C2206.032227,505.628937 2185.008545,516.880493 2163.835938,527.842163 
	C2134.118408,543.227661 2104.345215,558.506775 2074.553711,573.748779 
	C2069.744629,576.209106 2064.715576,578.239868 2058.098633,581.233643 
	C2088.936523,520.282959 2118.700684,461.454651 2148.273682,403.004272 
	C2141.299316,391.860321 2138.970703,391.456268 2130.784912,399.631805 
	C2104.249512,426.134430 2077.679199,452.602631 2051.261963,479.222687 
	C2035.391479,495.215118 2019.843994,511.528046 2003.989502,527.536682 
	C2001.417236,530.133911 1999.289185,533.868530 1994.224487,534.119873 
	C1995.437012,525.452820 1996.353882,517.240417 1997.765137,509.113861 
	C2002.508057,481.803284 2007.485596,454.533417 2012.257202,427.227722 
	C2015.103638,410.938599 2017.840942,394.628601 2020.424072,378.295898 
	C2022.339111,366.187866 2024.216553,354.059906 2025.553833,341.879700 
	C2026.371948,334.427338 2021.828979,330.306488 2015.590576,332.547760 
	C2013.087769,333.446991 2010.691040,336.011383 2009.318115,338.427216 
	C2005.390503,345.338623 2002.019531,352.565979 1998.416748,359.662537 
	C1985.372314,385.356873 1972.306763,411.040649 1959.279785,436.743805 
	C1948.942993,457.138977 1938.712524,477.588196 1928.294922,497.941772 
	C1925.721191,502.970062 1922.604004,507.720032 1919.521240,512.964478 
	C1916.828003,498.761292 1913.978271,485.836212 1911.982300,472.780640 
	C1907.429077,442.995972 1903.373657,413.135620 1898.957520,383.329498 
	C1896.585205,367.317535 1893.861206,351.357880 1891.347778,335.366486 
	C1890.627075,330.781403 1890.780884,325.915924 1889.231201,321.652344 
	C1888.127808,318.616272 1885.249268,315.123077 1882.396118,314.197449 
	C1880.359131,313.536591 1875.732544,316.143524 1874.586426,318.448334 
	C1872.312378,323.021484 1871.202026,328.324371 1870.403931,333.449219 
	C1868.720581,344.260162 1867.752197,355.181610 1866.113159,366.000549 
	C1864.179443,378.762726 1861.711914,391.443420 1859.720825,404.197662 
	C1857.113525,420.899994 1854.821045,437.651276 1852.251587,454.359772 
	C1850.141357,468.081146 1847.835083,481.772430 1845.594727,495.473633 
	C1844.678833,501.075531 1843.707520,506.668335 1842.761475,512.265259 
	C1838.595825,507.336456 1836.020874,502.423187 1833.520752,497.472046 
	C1822.774658,476.189941 1812.041504,454.901245 1801.320923,433.606323 
	C1787.763062,406.675598 1774.227539,379.733704 1760.669312,352.803192 
	C1757.833740,347.170715 1754.674438,341.683228 1752.157471,335.913757 
	C1750.010986,330.993347 1746.012939,331.181671 1742.100830,331.738831 
	C1737.939575,332.331482 1737.243652,335.764130 1737.531860,339.363800 
	C1737.955933,344.661926 1738.167603,350.001007 1739.001343,355.238007 
	C1741.806152,372.858856 1744.960327,390.424103 1747.768188,408.044495 
	C1751.464966,431.242371 1754.899048,454.482025 1758.575439,477.683228 
	C1759.921021,486.175262 1761.839355,494.577789 1763.131104,503.076691 
	C1764.855469,514.420410 1766.223877,525.818237 1767.873657,538.153137 
	C1766.105591,536.868042 1764.955078,536.255127 1764.085815,535.366821 
	C1748.050781,518.982727 1732.039062,502.575897 1716.045288,486.151550 
	C1707.288330,477.158630 1698.583984,468.114471 1689.837891,459.110992 
	C1676.915649,445.808319 1664.009644,432.489807 1651.033691,419.239777 
	C1643.635010,411.684814 1636.289917,404.061523 1628.575317,396.837738 
	C1624.079346,392.627747 1618.497681,392.353516 1615.230835,395.334412 
	C1611.051758,399.147797 1612.988770,402.909302 1615.157959,406.931122 
	C1621.582275,418.842712 1627.902954,430.813171 1634.063232,442.863403 
	C1642.500488,459.367554 1650.749146,475.968170 1659.086060,492.523651 
	C1665.481445,505.223236 1671.888550,517.916870 1678.290161,530.613281 
	C1686.043701,545.991699 1693.798950,561.369263 1701.547119,576.750366 
	C1702.327515,578.299500 1703.063965,579.870667 1703.820923,581.431580 
	C1697.435425,579.958496 1692.454102,576.959351 1687.292847,574.310913 
	C1666.664673,563.725586 1645.921875,553.362854 1625.330933,542.706116 
	C1594.488403,526.743835 1563.748047,510.584564 1532.928955,494.576691 
	C1530.598145,493.366058 1528.041260,492.151428 1525.494385,491.898987 
	C1521.732788,491.526215 1517.260498,489.908020 1514.664551,494.434509 
	C1512.021362,499.043060 1514.898682,502.723541 1517.296265,506.283386 
	C1518.192993,507.614777 1519.747437,508.493622 1520.960815,509.622864 
	C1527.255981,515.481750 1533.678955,521.211914 1539.798218,527.249634 
	C1558.889404,546.086792 1577.752197,565.156189 1596.915161,583.919312 
	C1615.680298,602.292908 1634.726685,620.379089 1653.578735,638.664368 
	C1655.227295,640.263306 1656.348999,642.405334 1658.505249,645.387390 
	C1629.374756,640.651367 1602.010986,636.128662 1574.620239,631.775635 
	C1556.621582,628.915283 1538.572144,626.374817 1520.566895,623.554016 
	C1501.270508,620.530945 1482.030151,617.132996 1462.702026,614.336975 
	C1454.697998,613.179199 1454.156982,614.007629 1449.973999,623.551697 
	C1453.027100,625.854126 1456.049927,628.875305 1459.668945,630.738159 
	C1478.245483,640.300659 1496.994507,649.527283 1515.647583,658.942139 
	C1549.989502,676.275757 1584.316528,693.639404 1618.622437,711.044067 
	C1623.315674,713.425049 1627.853271,716.112915 1633.870972,719.436401 
	C1611.259521,723.062805 1590.701050,726.489685 1570.097778,729.623413 
	C1553.402588,732.162659 1536.624634,734.162659 1519.937866,736.753235 
	C1507.222900,738.727295 1494.625610,741.453613 1481.917480,743.478394 
	C1467.880981,745.714905 1453.787720,747.607178 1439.697632,749.488098 
	C1435.501343,750.048218 1431.608276,750.924683 1430.491089,755.603699 
	C1429.333496,760.452332 1431.470093,763.990356 1437.283936,767.105408 
	C1441.912476,767.404419 1446.541016,767.963745 1451.169678,767.964905 
	C1624.042358,768.007507 1796.915039,767.997375 1969.787720,767.997009 
	C2082.704590,767.996704 2195.621582,768.020935 2308.538330,767.927673 
	C2313.087158,767.923828 2317.635254,766.823547 2323.327393,765.445862 
M1770.308838,1043.000000 
	C1771.022461,969.056519 1768.579712,895.086304 1772.245728,821.166199 
	C1772.773560,810.523254 1770.337036,808.055176 1759.781006,808.026611 
	C1731.782593,807.950867 1703.783691,807.945435 1675.785278,808.032776 
	C1666.390625,808.062073 1664.289551,810.423157 1663.633423,819.815369 
	C1663.285767,824.792297 1662.372681,829.729736 1661.533936,836.046021 
	C1657.934326,832.668701 1655.793701,830.622559 1653.612793,828.620239 
	C1642.919678,818.803772 1630.697266,811.553040 1616.923096,806.977844 
	C1586.105957,796.741638 1555.060181,797.963745 1524.716431,807.780334 
	C1486.570923,820.120728 1457.719849,844.807373 1436.937622,879.061584 
	C1416.458130,912.816589 1410.326050,950.298889 1408.472534,988.807617 
	C1408.078125,997.002380 1409.432495,1005.322205 1410.416748,1013.532166 
	C1411.643066,1023.760254 1412.186646,1034.261963 1415.019897,1044.069214 
	C1423.112183,1072.081055 1434.970703,1098.251953 1455.650024,1119.677002 
	C1470.670166,1135.238647 1487.838379,1147.708130 1508.135864,1155.015625 
	C1522.458984,1160.172241 1537.184814,1164.211548 1552.737183,1164.970825 
	C1579.014648,1166.253540 1603.723877,1161.531372 1626.539185,1148.229492 
	C1633.313354,1144.280029 1639.734741,1139.725342 1647.294922,1134.812988 
	C1648.259766,1158.521973 1643.160522,1179.192139 1626.689209,1195.693115 
	C1621.399170,1200.992798 1614.924072,1206.066040 1608.020996,1208.605347 
	C1592.392822,1214.354370 1576.104126,1218.225342 1559.135986,1216.650024 
	C1529.417725,1213.890625 1500.783447,1207.223389 1474.145020,1193.184082 
	C1465.830688,1188.802124 1461.102051,1191.024048 1458.326782,1199.943970 
	C1457.933594,1201.208008 1457.885742,1202.575439 1457.560059,1203.865234 
	C1452.272583,1224.805420 1447.484863,1245.890381 1441.508179,1266.632568 
	C1436.222290,1284.976562 1435.473022,1284.462280 1454.711060,1293.136230 
	C1475.674072,1302.588135 1498.560059,1306.845825 1521.209595,1309.711182 
	C1544.905029,1312.708984 1568.968628,1313.396851 1592.894043,1313.828003 
	C1625.002197,1314.406738 1655.635254,1307.526367 1683.907837,1291.772949 
	C1706.923218,1278.948608 1726.070923,1262.020752 1740.347900,1239.542725 
	C1760.282837,1208.157104 1766.780640,1172.837158 1769.286255,1136.933960 
	C1771.416260,1106.414185 1770.100342,1075.653931 1770.308838,1043.000000 
M2275.393311,845.611328 
	C2263.653320,828.127930 2248.437500,814.594788 2229.622070,805.074768 
	C2204.158936,792.191162 2176.906250,787.238525 2148.672119,786.889038 
	C2122.000000,786.558899 2095.743896,789.362915 2069.685303,795.687012 
	C2048.808594,800.753479 2029.068359,808.218262 2010.096802,817.974976 
	C2001.536499,822.377319 2000.930908,824.683228 2003.476929,834.040588 
	C2008.447510,852.309265 2013.280273,870.615417 2018.234375,888.888550 
	C2018.927612,891.445557 2019.884277,893.944580 2020.887939,896.401428 
	C2024.842041,906.080505 2028.537964,907.676086 2037.444336,902.887573 
	C2060.269531,890.615723 2084.497070,882.751709 2110.297607,880.609619 
	C2128.911865,879.064270 2147.448242,878.937500 2164.536133,889.130493 
	C2174.038574,894.798828 2176.313477,903.344543 2178.103027,913.296570 
	C2175.486328,913.605164 2173.860840,913.893555 2172.225098,913.975159 
	C2147.296143,915.218506 2122.652588,917.745178 2098.181152,923.506531 
	C2072.871094,929.465454 2049.503174,938.914612 2028.335571,953.838745 
	C2006.695557,969.095764 1991.541016,989.489502 1983.847168,1014.685791 
	C1976.389038,1039.110596 1974.694214,1063.920288 1981.567749,1089.190186 
	C1990.872070,1123.396729 2011.217041,1148.215088 2042.680420,1163.751953 
	C2069.391602,1176.942017 2097.971680,1178.095825 2126.587646,1172.648926 
	C2148.642334,1168.451050 2169.106689,1159.668945 2186.061035,1144.147583 
	C2187.319824,1142.995239 2189.251709,1142.577759 2191.241943,1141.644531 
	C2192.843506,1148.535156 2194.513428,1154.604980 2195.596191,1160.777832 
	C2196.302246,1164.801147 2198.486572,1166.564209 2202.208252,1166.895874 
	C2204.526123,1167.102295 2206.864990,1167.138062 2209.194580,1167.139404 
	C2237.184570,1167.154541 2265.174805,1167.160400 2293.164795,1167.129517 
	C2295.822510,1167.126587 2298.519287,1167.096680 2301.127930,1166.659546 
	C2305.269775,1165.965576 2307.621338,1163.361572 2307.565674,1159.067749 
	C2307.535889,1156.762817 2307.034912,1154.466919 2306.804932,1152.161255 
	C2305.090820,1134.996948 2302.202881,1117.851929 2301.903320,1100.662109 
	C2300.882324,1042.069336 2301.088135,983.455811 2300.182129,924.860046 
	C2299.747314,896.723083 2291.530273,870.576233 2275.393311,845.611328 
M327.693451,1033.049316 
	C327.064728,1038.319702 326.058594,1043.576294 325.866943,1048.862549 
	C324.334747,1091.128540 338.719788,1126.264526 372.714752,1152.505493 
	C387.790161,1164.142212 405.135803,1170.732422 423.643524,1173.743896 
	C433.742432,1175.387207 444.217255,1175.170044 454.514099,1175.052124 
	C474.832764,1174.819824 493.947052,1169.297607 511.696594,1159.646118 
	C521.239258,1154.457031 530.099731,1148.013550 539.381165,1142.063599 
	C540.753113,1147.698730 541.891418,1153.215332 543.458313,1158.607544 
	C545.647644,1166.141968 546.767639,1167.070923 554.685181,1167.097290 
	C584.343445,1167.196167 614.002808,1167.239502 643.660522,1167.078003 
	C654.653748,1167.018188 656.642517,1164.522949 655.556213,1153.863647 
	C655.455444,1152.874878 655.102661,1151.909424 655.026428,1150.920776 
	C653.442932,1130.394775 650.800110,1109.881226 650.531982,1089.336792 
	C649.875305,1039.025635 650.704346,988.696228 650.179260,938.381958 
	C649.834290,905.323242 642.541748,873.992065 624.038086,845.763611 
	C609.607422,823.748779 589.725098,808.522827 565.743286,799.231384 
	C543.997864,790.806396 520.996216,786.729126 497.484650,786.875977 
	C473.865448,787.023499 450.494354,788.539612 427.250305,793.884277 
	C408.028992,798.304016 389.338287,803.772522 371.350220,811.700562 
	C366.209900,813.966064 361.246643,816.715332 356.438110,819.631775 
	C349.973206,823.552795 349.395111,825.449524 351.355164,832.745728 
	C351.786285,834.350464 352.354706,835.917847 352.812592,837.515991 
	C357.836395,855.050964 363.386230,872.457825 367.712006,890.163635 
	C371.756683,906.718872 374.488953,908.360168 389.903839,900.794128 
	C417.448944,887.274231 446.299103,879.100952 477.302460,879.989380 
	C489.771240,880.346741 501.760406,882.325745 512.593445,889.083374 
	C521.492004,894.634277 526.050293,902.368774 525.819641,913.314697 
	C521.434082,913.844055 517.498352,914.711182 513.558594,914.729980 
	C490.810669,914.838501 468.585327,918.494446 446.455139,923.500183 
	C414.342499,930.763855 385.466095,944.148926 361.532532,967.086670 
	C352.651581,975.598145 344.845306,985.304993 339.995178,996.617615 
	C335.180725,1007.847168 331.931091,1019.747742 327.693451,1033.049316 
M2568.496582,800.020142 
	C2554.797607,799.441772 2541.401611,801.134827 2527.958008,803.967590 
	C2504.511475,808.908142 2484.214111,819.301819 2467.000000,835.918091 
	C2464.548828,838.283997 2461.590820,840.124634 2457.769287,843.048523 
	C2457.075195,838.961975 2456.571289,836.771851 2456.351562,834.553650 
	C2455.794922,828.936035 2455.742920,823.241394 2454.796875,817.695679 
	C2453.401611,809.516785 2451.747559,808.089111 2443.675049,808.055786 
	C2414.354004,807.934875 2385.031982,807.932739 2355.710938,808.054810 
	C2347.804443,808.087708 2345.888672,810.179016 2345.738037,818.282837 
	C2345.620117,824.604309 2345.838379,830.935974 2346.039062,837.258850 
	C2346.767090,860.202332 2348.131836,883.142029 2348.207764,906.086731 
	C2348.476807,987.386597 2348.311768,1068.687988 2348.315918,1149.988770 
	C2348.315918,1152.987183 2348.271484,1155.989746 2348.406982,1158.983032 
	C2348.620117,1163.682007 2351.264648,1166.305298 2355.827637,1166.886963 
	C2358.129395,1167.180298 2360.481934,1167.137817 2362.811523,1167.138916 
	C2394.132324,1167.153564 2425.453125,1167.175659 2456.773926,1167.136963 
	C2470.397949,1167.120239 2471.541260,1165.922974 2471.675049,1152.294800 
	C2471.697998,1149.962646 2471.679443,1147.630005 2471.679443,1145.297607 
	C2471.680664,1082.989258 2471.837646,1020.679993 2471.529297,958.373108 
	C2471.478027,948.003784 2473.542236,938.702454 2478.577881,929.770935 
	C2487.771240,913.465637 2501.156494,903.928589 2520.219971,903.231201 
	C2539.506348,902.525635 2556.696777,913.441895 2561.461914,929.980835 
	C2565.426270,943.741760 2567.739502,957.803894 2567.718994,972.232910 
	C2567.631836,1033.208374 2567.662598,1094.184082 2567.705811,1155.159668 
	C2567.713379,1165.575684 2568.849365,1166.651367 2578.969727,1167.108765 
	C2580.300293,1167.168823 2581.635010,1167.147095 2582.967773,1167.147217 
	C2613.955322,1167.149536 2644.942871,1167.151001 2675.930420,1167.145996 
	C2677.929199,1167.145752 2679.928467,1167.117432 2681.926270,1167.057861 
	C2687.177734,1166.901245 2689.801270,1164.027344 2690.131348,1158.931763 
	C2690.281982,1156.607422 2690.298828,1154.271118 2690.292236,1151.940430 
	C2690.098633,1082.643555 2689.895264,1013.346741 2689.690918,944.049927 
	C2689.609131,916.343689 2683.896484,889.904602 2671.095703,865.260559 
	C2655.103760,834.472717 2630.748535,813.760315 2596.673828,805.398926 
	C2587.987549,803.267456 2579.129883,801.835388 2568.496582,800.020142 
M1168.648804,1060.527100 
	C1159.366577,1052.500610 1150.941528,1043.925537 1148.416138,1029.988525 
	C1153.574585,1029.988525 1157.530518,1029.988647 1161.486572,1029.988647 
	C1223.785400,1029.988525 1286.084106,1030.006836 1348.382935,1029.947998 
	C1352.688599,1029.943970 1357.014771,1029.533936 1361.292969,1029.003174 
	C1364.986572,1028.544922 1367.236572,1026.387329 1367.664551,1022.469727 
	C1368.962402,1010.591003 1371.119507,998.747986 1371.531128,986.842224 
	C1372.527100,958.023254 1368.017456,929.957520 1358.539551,902.636230 
	C1351.253296,881.632141 1340.454224,862.844299 1325.451172,846.462585 
	C1296.168091,814.488220 1258.223389,802.758728 1216.499268,800.030334 
	C1199.090210,798.891907 1182.101196,802.157532 1165.119507,805.438416 
	C1136.247437,811.016663 1111.434692,824.839233 1089.590698,843.855774 
	C1073.419312,857.933777 1061.558594,875.633301 1051.581055,894.613281 
	C1035.453369,925.292419 1029.139160,958.277039 1028.442627,992.519348 
	C1028.261841,1001.407715 1029.113281,1010.414246 1030.476685,1019.213745 
	C1032.453003,1031.969849 1034.384155,1044.864258 1038.017334,1057.204224 
	C1045.046265,1081.077759 1057.007812,1102.376099 1074.352417,1120.550537 
	C1090.228516,1137.186157 1108.851685,1149.375366 1130.065796,1158.215332 
	C1151.788086,1167.266968 1174.337891,1172.286377 1197.628418,1173.844727 
	C1210.510620,1174.706665 1223.517090,1173.546509 1236.433472,1174.096680 
	C1263.736328,1175.259399 1289.911011,1168.469482 1316.259155,1163.161499 
	C1325.613281,1161.277100 1334.589478,1157.362915 1343.610840,1154.030151 
	C1350.630371,1151.436768 1352.592041,1148.661621 1351.428345,1142.129395 
	C1347.297241,1118.939209 1343.034180,1095.768433 1338.407715,1072.673096 
	C1336.859131,1064.942505 1332.810547,1063.083130 1325.269409,1065.327393 
	C1318.270020,1067.410400 1311.444580,1070.478149 1304.304321,1071.609375 
	C1285.950073,1074.517334 1267.512939,1077.103271 1249.018799,1078.880249 
	C1220.845459,1081.587769 1194.160767,1076.444580 1168.648804,1060.527100 
M2910.981445,903.147888 
	C2918.981201,903.136841 2926.985596,903.297607 2934.979248,903.069824 
	C2944.225586,902.806396 2946.183350,900.954224 2946.242676,891.746338 
	C2946.397217,867.747742 2946.397217,843.746887 2946.249512,819.748230 
	C2946.190674,810.192871 2943.920654,808.084778 2934.311279,808.030029 
	C2916.645752,807.929321 2898.978760,807.999146 2881.312500,807.997986 
	C2877.775146,807.997742 2874.237549,807.997986 2869.686279,807.997986 
	C2869.686279,802.971497 2869.686523,799.376465 2869.686035,795.781494 
	C2869.683838,772.448547 2869.773438,749.115112 2869.635254,725.782959 
	C2869.577637,716.047302 2866.944824,714.106506 2857.294678,715.854736 
	C2855.657471,716.151306 2854.015137,716.466064 2852.415283,716.916077 
	C2821.696045,725.557922 2790.992188,734.255188 2760.262451,742.860168 
	C2750.710449,745.534851 2749.845459,746.331604 2749.735840,756.688721 
	C2749.591309,770.353638 2749.730225,784.021362 2749.663818,797.687439 
	C2749.648193,800.890869 2749.297852,804.092712 2749.058350,808.001709 
	C2735.064209,808.001709 2722.099365,807.931152 2709.135986,808.025879 
	C2700.159912,808.091431 2697.997314,810.158691 2697.742432,819.149780 
	C2697.525391,826.810303 2697.673096,834.481567 2697.683838,842.148071 
	C2697.707275,858.813965 2697.490479,875.485840 2697.879150,892.143433 
	C2698.098145,901.530640 2699.978027,902.984314 2709.376709,903.109192 
	C2719.707764,903.246582 2730.043457,903.075195 2740.374756,903.204773 
	C2743.207764,903.240295 2746.033447,903.872070 2749.691162,904.335144 
	C2749.691162,908.481995 2749.678467,911.762817 2749.693115,915.043518 
	C2749.897949,961.297668 2749.945068,1007.553345 2750.398926,1053.805054 
	C2750.562500,1070.473022 2752.613281,1086.987915 2758.020508,1102.912231 
	C2763.206543,1118.185303 2770.099121,1132.542969 2782.026123,1143.756958 
	C2801.959473,1162.498535 2826.196777,1171.685303 2853.097656,1173.863647 
	C2863.973145,1174.744263 2874.986572,1173.766113 2885.925049,1174.069580 
	C2903.138916,1174.547119 2919.566650,1170.488647 2935.932129,1165.985352 
	C2943.592041,1163.877563 2944.179199,1163.060913 2944.275879,1154.725830 
	C2944.410889,1143.060791 2944.346191,1131.393188 2944.308838,1119.726807 
	C2944.264648,1106.063843 2944.472412,1092.389404 2943.963379,1078.742554 
	C2943.646729,1070.258057 2940.089355,1068.266113 2931.606689,1069.433472 
	C2923.051758,1070.610840 2914.410889,1071.840454 2905.806885,1071.846558 
	C2887.076660,1071.859863 2878.324951,1065.988281 2873.435791,1048.493652 
	C2870.710205,1038.740845 2869.970703,1028.199951 2869.846436,1017.995728 
	C2869.427734,983.668152 2869.669922,949.332214 2869.712158,914.999573 
	C2869.716309,911.447327 2870.071289,907.895508 2870.328369,903.146301 
	C2883.813477,903.146301 2896.401123,903.146301 2910.981445,903.147888 
M764.999817,1167.158325 
	C779.655884,1167.155640 794.312683,1167.242554 808.967773,1167.121704 
	C820.519897,1167.026489 821.677551,1165.857300 821.678772,1154.645508 
	C821.697327,991.763367 821.699036,828.881226 821.676086,665.999084 
	C821.674438,653.976929 819.723816,652.031372 807.841919,652.009644 
	C780.861511,651.960327 753.880981,651.993286 726.900513,651.993652 
	C721.237915,651.993713 715.572449,651.882568 709.913452,652.026428 
	C701.739685,652.234192 698.773804,655.258667 698.341797,663.577026 
	C698.238281,665.570557 698.308289,667.573364 698.308289,669.571899 
	C698.307312,830.122375 698.307007,990.672913 698.310730,1151.223389 
	C698.310791,1153.887695 698.324646,1156.552979 698.397095,1159.216064 
	C698.515564,1163.567627 701.047180,1165.962891 705.077393,1166.675415 
	C707.677429,1167.134888 710.379272,1167.132324 713.035950,1167.138306 
	C729.690430,1167.175659 746.345154,1167.156982 764.999817,1167.158325 
M954.988892,651.997314 
	C930.338989,651.998108 905.688965,651.947449 881.039307,652.023438 
	C870.329407,652.056458 868.022705,654.370911 867.695801,664.746155 
	C867.643372,666.410095 867.678528,668.076965 867.678528,669.742493 
	C867.678101,829.967285 867.677551,990.192078 867.682434,1150.416870 
	C867.682556,1153.080933 867.714539,1155.745972 867.789246,1158.408813 
	C867.934937,1163.603271 870.837463,1166.347290 875.802307,1166.880981 
	C878.771301,1167.200073 881.787964,1167.139282 884.783264,1167.140991 
	C914.429871,1167.157349 944.076416,1167.159058 973.723022,1167.148193 
	C991.126099,1167.141846 991.685730,1166.578125 991.685974,1149.209717 
	C991.688232,989.651123 991.687378,830.092468 991.686340,670.533875 
	C991.686340,668.202148 991.776733,665.864563 991.645081,663.539795 
	C991.171997,655.187805 988.324158,652.266602 979.965332,652.049561 
	C972.308899,651.850708 964.643494,652.000854 954.988892,651.997314 
M1851.041138,794.937744 
	C1844.711914,794.944397 1838.378540,794.804871 1832.054443,794.987183 
	C1817.386841,795.409973 1816.312134,796.561829 1816.311279,811.239685 
	C1816.304443,924.498474 1816.306641,1037.757202 1816.312500,1151.015991 
	C1816.312622,1153.680054 1816.212402,1156.360840 1816.465088,1159.004517 
	C1816.901855,1163.571411 1819.566895,1166.312500 1824.098755,1166.854736 
	C1827.060791,1167.209106 1830.081299,1167.146118 1833.075684,1167.147949 
	C1862.056641,1167.166504 1891.037476,1167.167603 1920.018433,1167.156006 
	C1939.084717,1167.148438 1939.677490,1166.558105 1939.678223,1147.608398 
	C1939.682373,1036.681396 1939.681519,925.754456 1939.679077,814.827515 
	C1939.678589,796.212280 1938.619995,795.054565 1919.984131,794.966248 
	C1897.666016,794.860413 1875.346924,794.940125 1851.041138,794.937744 
M2965.649902,712.763489 
	C2963.035156,717.739258 2959.571777,722.455627 2957.957031,727.737122 
	C2951.972900,747.311035 2953.149658,766.088135 2963.917725,784.291992 
	C2982.263672,815.306030 3022.433350,821.530273 3050.555420,806.627319 
	C3073.835938,794.290222 3087.684814,765.496643 3082.442383,738.247803 
	C3076.291016,706.276428 3053.330566,687.968567 3024.496338,685.168274 
	C3000.860596,682.872803 2981.046875,692.411438 2965.649902,712.763489 
z"/>
<path fill="#FD9700" opacity="1.000000" stroke="none" 
	d="
M1435.836060,766.238647 
	C1431.470093,763.990356 1429.333496,760.452332 1430.491089,755.603699 
	C1431.608276,750.924683 1435.501343,750.048218 1439.697632,749.488098 
	C1453.787720,747.607178 1467.880981,745.714905 1481.917480,743.478394 
	C1494.625610,741.453613 1507.222900,738.727295 1519.937866,736.753235 
	C1536.624634,734.162659 1553.402588,732.162659 1570.097778,729.623413 
	C1590.701050,726.489685 1611.259521,723.062805 1633.870972,719.436401 
	C1627.853271,716.112915 1623.315674,713.425049 1618.622437,711.044067 
	C1584.316528,693.639404 1549.989502,676.275757 1515.647583,658.942139 
	C1496.994507,649.527283 1478.245483,640.300659 1459.668945,630.738159 
	C1456.049927,628.875305 1453.027100,625.854126 1449.973999,623.551697 
	C1454.156982,614.007629 1454.697998,613.179199 1462.702026,614.336975 
	C1482.030151,617.132996 1501.270508,620.530945 1520.566895,623.554016 
	C1538.572144,626.374817 1556.621582,628.915283 1574.620239,631.775635 
	C1602.010986,636.128662 1629.374756,640.651367 1658.505249,645.387390 
	C1656.348999,642.405334 1655.227295,640.263306 1653.578735,638.664368 
	C1634.726685,620.379089 1615.680298,602.292908 1596.915161,583.919312 
	C1577.752197,565.156189 1558.889404,546.086792 1539.798218,527.249634 
	C1533.678955,521.211914 1527.255981,515.481750 1520.960815,509.622864 
	C1519.747437,508.493622 1518.192993,507.614777 1517.296265,506.283386 
	C1514.898682,502.723541 1512.021362,499.043060 1514.664551,494.434509 
	C1517.260498,489.908020 1521.732788,491.526215 1525.494385,491.898987 
	C1528.041260,492.151428 1530.598145,493.366058 1532.928955,494.576691 
	C1563.748047,510.584564 1594.488403,526.743835 1625.330933,542.706116 
	C1645.921875,553.362854 1666.664673,563.725586 1687.292847,574.310913 
	C1692.454102,576.959351 1697.435425,579.958496 1703.820923,581.431580 
	C1703.063965,579.870667 1702.327515,578.299500 1701.547119,576.750366 
	C1693.798950,561.369263 1686.043701,545.991699 1678.290161,530.613281 
	C1671.888550,517.916870 1665.481445,505.223236 1659.086060,492.523651 
	C1650.749146,475.968170 1642.500488,459.367554 1634.063232,442.863403 
	C1627.902954,430.813171 1621.582275,418.842712 1615.157959,406.931122 
	C1612.988770,402.909302 1611.051758,399.147797 1615.230835,395.334412 
	C1618.497681,392.353516 1624.079346,392.627747 1628.575317,396.837738 
	C1636.289917,404.061523 1643.635010,411.684814 1651.033691,419.239777 
	C1664.009644,432.489807 1676.915649,445.808319 1689.837891,459.110992 
	C1698.583984,468.114471 1707.288330,477.158630 1716.045288,486.151550 
	C1732.039062,502.575897 1748.050781,518.982727 1764.085815,535.366821 
	C1764.955078,536.255127 1766.105591,536.868042 1767.873657,538.153137 
	C1766.223877,525.818237 1764.855469,514.420410 1763.131104,503.076691 
	C1761.839355,494.577789 1759.921021,486.175262 1758.575439,477.683228 
	C1754.899048,454.482025 1751.464966,431.242371 1747.768188,408.044495 
	C1744.960327,390.424103 1741.806152,372.858856 1739.001343,355.238007 
	C1738.167603,350.001007 1737.955933,344.661926 1737.531860,339.363800 
	C1737.243652,335.764130 1737.939575,332.331482 1742.100830,331.738831 
	C1746.012939,331.181671 1750.010986,330.993347 1752.157471,335.913757 
	C1754.674438,341.683228 1757.833740,347.170715 1760.669312,352.803192 
	C1774.227539,379.733704 1787.763062,406.675598 1801.320923,433.606323 
	C1812.041504,454.901245 1822.774658,476.189941 1833.520752,497.472046 
	C1836.020874,502.423187 1838.595825,507.336456 1842.761475,512.265259 
	C1843.707520,506.668335 1844.678833,501.075531 1845.594727,495.473633 
	C1847.835083,481.772430 1850.141357,468.081146 1852.251587,454.359772 
	C1854.821045,437.651276 1857.113525,420.899994 1859.720825,404.197662 
	C1861.711914,391.443420 1864.179443,378.762726 1866.113159,366.000549 
	C1867.752197,355.181610 1868.720581,344.260162 1870.403931,333.449219 
	C1871.202026,328.324371 1872.312378,323.021484 1874.586426,318.448334 
	C1875.732544,316.143524 1880.359131,313.536591 1882.396118,314.197449 
	C1885.249268,315.123077 1888.127808,318.616272 1889.231201,321.652344 
	C1890.780884,325.915924 1890.627075,330.781403 1891.347778,335.366486 
	C1893.861206,351.357880 1896.585205,367.317535 1898.957520,383.329498 
	C1903.373657,413.135620 1907.429077,442.995972 1911.982300,472.780640 
	C1913.978271,485.836212 1916.828003,498.761292 1919.521240,512.964478 
	C1922.604004,507.720032 1925.721191,502.970062 1928.294922,497.941772 
	C1938.712524,477.588196 1948.942993,457.138977 1959.279785,436.743805 
	C1972.306763,411.040649 1985.372314,385.356873 1998.416748,359.662537 
	C2002.019531,352.565979 2005.390503,345.338623 2009.318115,338.427216 
	C2010.691040,336.011383 2013.087769,333.446991 2015.590576,332.547760 
	C2021.828979,330.306488 2026.371948,334.427338 2025.553833,341.879700 
	C2024.216553,354.059906 2022.339111,366.187866 2020.424072,378.295898 
	C2017.840942,394.628601 2015.103638,410.938599 2012.257202,427.227722 
	C2007.485596,454.533417 2002.508057,481.803284 1997.765137,509.113861 
	C1996.353882,517.240417 1995.437012,525.452820 1994.224487,534.119873 
	C1999.289185,533.868530 2001.417236,530.133911 2003.989502,527.536682 
	C2019.843994,511.528046 2035.391479,495.215118 2051.261963,479.222687 
	C2077.679199,452.602631 2104.249512,426.134430 2130.784912,399.631805 
	C2138.970703,391.456268 2141.299316,391.860321 2148.273682,403.004272 
	C2118.700684,461.454651 2088.936523,520.282959 2058.098633,581.233643 
	C2064.715576,578.239868 2069.744629,576.209106 2074.553711,573.748779 
	C2104.345215,558.506775 2134.118408,543.227661 2163.835938,527.842163 
	C2185.008545,516.880493 2206.032227,505.628937 2227.258057,494.772186 
	C2230.698486,493.012512 2234.836426,491.843506 2238.669189,491.795868 
	C2245.289307,491.713623 2248.477051,498.136475 2245.037598,503.845764 
	C2244.027588,505.522034 2242.464600,506.892822 2241.041748,508.288208 
	C2217.287842,531.583557 2193.429443,554.773071 2169.778320,578.172302 
	C2154.225098,593.559875 2139.006104,609.284729 2123.553711,624.774902 
	C2117.310791,631.033142 2110.844971,637.068970 2103.491943,644.159180 
	C2120.567139,642.007263 2136.300293,640.273804 2151.951904,637.981995 
	C2167.622559,635.687317 2183.214355,632.851013 2198.835693,630.222168 
	C2213.837891,627.697571 2228.788818,624.823853 2243.843018,622.667297 
	C2262.535889,619.989441 2281.281738,617.594910 2300.067383,615.700378 
	C2306.772949,615.024170 2310.404541,620.290771 2307.789551,625.734253 
	C2306.882812,627.620850 2304.743896,629.216309 2302.799072,630.253540 
	C2291.396240,636.335205 2279.896973,642.237915 2268.404785,648.151489 
	C2255.426025,654.830078 2242.471680,661.559326 2229.413574,668.079651 
	C2213.113770,676.218567 2196.638916,684.007996 2180.388184,692.241882 
	C2164.144775,700.471924 2148.081055,709.056702 2131.963867,717.533752 
	C2131.464111,717.796509 2131.242432,718.587524 2130.500244,719.738525 
	C2133.137451,720.384888 2135.524902,721.159485 2137.973389,721.540466 
	C2159.545166,724.896790 2181.125244,728.201111 2202.708008,731.484985 
	C2221.985352,734.417969 2241.270020,737.302917 2260.550537,740.214111 
	C2276.577881,742.634277 2292.606689,745.046143 2308.629150,747.499023 
	C2311.887939,747.997925 2315.156250,748.516357 2318.359863,749.280212 
	C2328.693604,751.744324 2330.150391,756.580933 2321.802734,765.748657 
	C2242.145996,766.037659 2164.014404,766.028687 2085.882568,765.995605 
	C2081.900146,765.993896 2077.917725,765.784851 2073.851562,764.949585 
	C2072.613770,759.110779 2068.184570,758.971008 2064.362793,758.372070 
	C2041.684448,754.818054 2018.977661,751.445618 1996.294678,747.920105 
	C1994.575073,747.652771 1992.966553,746.670654 1989.399292,745.274414 
	C1994.041382,742.584473 1997.020020,740.656799 2000.169189,739.066711 
	C2019.203979,729.455811 2038.308228,719.981567 2057.307129,710.300598 
	C2060.279785,708.786011 2062.832275,706.447937 2065.579102,704.490540 
	C2065.343506,703.640015 2065.108154,702.789551 2064.872803,701.939026 
	C2062.527588,701.669312 2060.100098,700.865356 2057.849854,701.211914 
	C2033.516968,704.959656 2009.213867,708.901489 1984.895386,712.743164 
	C1982.809082,713.072754 1980.669556,713.064331 1976.552124,713.353638 
	C1980.063354,709.512634 1982.115234,707.023193 1984.416260,704.790405 
	C1999.947266,689.719604 2015.582275,674.755554 2031.049072,659.619507 
	C2033.707642,657.017700 2035.723755,653.759460 2038.084717,650.743225 
	C2033.842773,646.971191 2030.780273,648.669250 2027.878662,650.136902 
	C2018.962402,654.646484 2010.166138,659.394897 2001.221436,663.846191 
	C1987.529663,670.659729 1973.753052,677.302673 1960.005859,684.008667 
	C1959.999268,683.999451 1959.978394,683.983948 1959.971924,683.230896 
	C1961.382690,678.770264 1962.513428,674.920776 1964.265747,671.378967 
	C1973.280273,653.160034 1982.506836,635.046021 1991.521729,616.827271 
	C1993.031860,613.775208 1995.908813,610.807007 1993.317505,605.478638 
	C1990.557983,606.945862 1987.650269,607.744263 1985.798706,609.597778 
	C1973.561035,621.847595 1961.525024,634.299622 1949.476562,646.737183 
	C1943.364136,653.047119 1938.056152,660.240295 1929.550537,665.303162 
	C1929.550537,662.969666 1929.371094,661.673462 1929.577148,660.441772 
	C1933.474731,637.137695 1937.478271,613.851196 1941.292480,590.533630 
	C1941.941162,586.568298 1943.739380,582.086670 1938.171265,577.963013 
	C1936.091675,581.301514 1934.050537,584.138123 1932.457031,587.207153 
	C1921.865112,607.607422 1911.390137,628.068359 1900.805298,648.472351 
	C1899.873047,650.269531 1898.427979,651.800720 1896.550171,654.375366 
	C1895.576904,651.158936 1894.773804,649.315918 1894.475586,647.394653 
	C1890.953613,624.703247 1887.500488,602.001099 1884.048340,579.298950 
	C1883.567505,576.136108 1884.061401,572.499146 1878.954224,570.821167 
	C1872.711548,578.904785 1874.474854,589.060669 1872.383057,598.053711 
	C1870.277344,607.106018 1869.409302,616.443481 1867.930664,625.644958 
	C1866.430664,634.979309 1864.847290,644.300293 1863.300415,653.627197 
	C1859.889404,651.089600 1858.201172,648.370789 1856.767456,645.523804 
	C1848.523804,629.154419 1840.351562,612.749023 1832.129395,596.368896 
	C1829.887695,591.902893 1827.718018,587.387756 1825.206421,583.075073 
	C1823.748535,580.571655 1822.020874,577.674194 1817.122925,580.297974 
	C1819.954956,607.941711 1826.908691,635.459045 1828.829468,663.861755 
	C1825.436646,662.111328 1822.978760,660.034119 1820.714355,657.763733 
	C1805.182983,642.191467 1789.735107,626.535522 1774.143066,611.024414 
	C1771.734863,608.628662 1769.898193,604.843994 1763.853271,605.830505 
	C1765.136230,609.739929 1765.867188,613.505371 1767.534790,616.796204 
	C1777.472778,636.407715 1787.655273,655.895325 1797.676880,675.464783 
	C1799.087280,678.218933 1800.067383,681.193542 1801.246582,684.066101 
	C1800.673950,684.542480 1800.101318,685.018860 1799.528687,685.495239 
	C1793.064819,682.295837 1786.553711,679.188049 1780.150635,675.871582 
	C1773.646606,672.502869 1767.287598,668.854797 1760.794312,665.464783 
	C1754.296143,662.072144 1747.859375,658.494507 1741.119995,655.651062 
	C1734.732666,652.956177 1729.428589,647.182434 1721.452148,647.607483 
	C1720.245850,652.847900 1723.834351,654.873352 1726.255005,657.299622 
	C1741.788574,672.869568 1757.455078,688.306946 1772.966797,703.898499 
	C1775.333008,706.277100 1779.018311,708.101135 1778.506958,713.012817 
	C1776.896851,713.012817 1775.600220,713.189026 1774.365479,712.986816 
	C1750.390381,709.060242 1726.421143,705.098328 1702.454834,701.118103 
	C1698.924438,700.531860 1695.238403,699.239319 1692.882202,704.192261 
	C1697.687012,709.843628 1704.915161,710.993896 1710.757080,714.406311 
	C1717.077637,718.098267 1723.669067,721.329102 1730.166138,724.715637 
	C1736.370117,727.949524 1742.716431,730.928223 1748.794067,734.381775 
	C1754.885498,737.843140 1762.379028,739.238037 1767.874512,746.870850 
	C1756.920410,748.702087 1747.244141,750.435425 1737.529541,751.916748 
	C1722.726196,754.174194 1707.884521,756.179626 1693.085449,758.463440 
	C1688.838379,759.118896 1684.163086,759.713135 1683.022095,765.826172 
	C1625.265503,765.980042 1568.433960,765.974182 1511.602295,766.019348 
	C1486.346924,766.039429 1461.091431,766.162415 1435.836060,766.238647 
z"/>
<path fill="#01579A" opacity="1.000000" stroke="none" 
	d="
M1770.308960,1044.000000 
	C1770.100342,1075.653931 1771.416260,1106.414185 1769.286255,1136.933960 
	C1766.780640,1172.837158 1760.282837,1208.157104 1740.347900,1239.542725 
	C1726.070923,1262.020752 1706.923218,1278.948608 1683.907837,1291.772949 
	C1655.635254,1307.526367 1625.002197,1314.406738 1592.894043,1313.828003 
	C1568.968628,1313.396851 1544.905029,1312.708984 1521.209595,1309.711182 
	C1498.560059,1306.845825 1475.674072,1302.588135 1454.711060,1293.136230 
	C1435.473022,1284.462280 1436.222290,1284.976562 1441.508179,1266.632568 
	C1447.484863,1245.890381 1452.272583,1224.805420 1457.560059,1203.865234 
	C1457.885742,1202.575439 1457.933594,1201.208008 1458.326782,1199.943970 
	C1461.102051,1191.024048 1465.830688,1188.802124 1474.145020,1193.184082 
	C1500.783447,1207.223389 1529.417725,1213.890625 1559.135986,1216.650024 
	C1576.104126,1218.225342 1592.392822,1214.354370 1608.020996,1208.605347 
	C1614.924072,1206.066040 1621.399170,1200.992798 1626.689209,1195.693115 
	C1643.160522,1179.192139 1648.259766,1158.521973 1647.294922,1134.812988 
	C1639.734741,1139.725342 1633.313354,1144.280029 1626.539185,1148.229492 
	C1603.723877,1161.531372 1579.014648,1166.253540 1552.737183,1164.970825 
	C1537.184814,1164.211548 1522.458984,1160.172241 1508.135864,1155.015625 
	C1487.838379,1147.708130 1470.670166,1135.238647 1455.650024,1119.677002 
	C1434.970703,1098.251953 1423.112183,1072.081055 1415.019897,1044.069214 
	C1412.186646,1034.261963 1411.643066,1023.760254 1410.416748,1013.532166 
	C1409.432495,1005.322205 1408.078125,997.002380 1408.472534,988.807617 
	C1410.326050,950.298889 1416.458130,912.816589 1436.937622,879.061584 
	C1457.719849,844.807373 1486.570923,820.120728 1524.716431,807.780334 
	C1555.060181,797.963745 1586.105957,796.741638 1616.923096,806.977844 
	C1630.697266,811.553040 1642.919678,818.803772 1653.612793,828.620239 
	C1655.793701,830.622559 1657.934326,832.668701 1661.533936,836.046021 
	C1662.372681,829.729736 1663.285767,824.792297 1663.633423,819.815369 
	C1664.289551,810.423157 1666.390625,808.062073 1675.785278,808.032776 
	C1703.783691,807.945435 1731.782593,807.950867 1759.781006,808.026611 
	C1770.337036,808.055176 1772.773560,810.523254 1772.245728,821.166199 
	C1768.579712,895.086304 1771.022461,969.056519 1770.308960,1044.000000 
M1555.462280,1053.536499 
	C1557.214722,1055.065552 1558.899658,1056.681030 1560.729980,1058.110352 
	C1582.423950,1075.051270 1609.085205,1073.985352 1628.449707,1057.129517 
	C1641.149048,1046.075317 1646.465820,1031.234253 1646.346313,1014.375854 
	C1646.209351,995.049561 1646.092407,975.717957 1646.401733,956.395569 
	C1646.603516,943.786255 1644.523438,932.055115 1637.638916,921.191101 
	C1629.068237,907.666077 1617.350220,899.425232 1601.265869,898.066772 
	C1576.257935,895.954834 1558.701538,906.890503 1546.497681,928.495300 
	C1540.598145,938.939087 1538.522583,950.135620 1535.830933,961.441589 
	C1532.496216,975.448364 1531.770996,989.308777 1534.315552,1003.472473 
	C1537.518433,1021.300232 1541.723633,1038.640869 1555.462280,1053.536499 
z"/>
<path fill="#01579A" opacity="1.000000" stroke="none" 
	d="
M2275.752197,846.234131 
	C2291.530273,870.576233 2299.747314,896.723083 2300.182129,924.860046 
	C2301.088135,983.455811 2300.882324,1042.069336 2301.903320,1100.662109 
	C2302.202881,1117.851929 2305.090820,1134.996948 2306.804932,1152.161255 
	C2307.034912,1154.466919 2307.535889,1156.762817 2307.565674,1159.067749 
	C2307.621338,1163.361572 2305.269775,1165.965576 2301.127930,1166.659546 
	C2298.519287,1167.096680 2295.822510,1167.126587 2293.164795,1167.129517 
	C2265.174805,1167.160400 2237.184570,1167.154541 2209.194580,1167.139404 
	C2206.864990,1167.138062 2204.526123,1167.102295 2202.208252,1166.895874 
	C2198.486572,1166.564209 2196.302246,1164.801147 2195.596191,1160.777832 
	C2194.513428,1154.604980 2192.843506,1148.535156 2191.241943,1141.644531 
	C2189.251709,1142.577759 2187.319824,1142.995239 2186.061035,1144.147583 
	C2169.106689,1159.668945 2148.642334,1168.451050 2126.587646,1172.648926 
	C2097.971680,1178.095825 2069.391602,1176.942017 2042.680420,1163.751953 
	C2011.217041,1148.215088 1990.872070,1123.396729 1981.567749,1089.190186 
	C1974.694214,1063.920288 1976.389038,1039.110596 1983.847168,1014.685791 
	C1991.541016,989.489502 2006.695557,969.095764 2028.335571,953.838745 
	C2049.503174,938.914612 2072.871094,929.465454 2098.181152,923.506531 
	C2122.652588,917.745178 2147.296143,915.218506 2172.225098,913.975159 
	C2173.860840,913.893555 2175.486328,913.605164 2178.103027,913.296570 
	C2176.313477,903.344543 2174.038574,894.798828 2164.536133,889.130493 
	C2147.448242,878.937500 2128.911865,879.064270 2110.297607,880.609619 
	C2084.497070,882.751709 2060.269531,890.615723 2037.444336,902.887573 
	C2028.537964,907.676086 2024.842041,906.080505 2020.887939,896.401428 
	C2019.884277,893.944580 2018.927612,891.445557 2018.234375,888.888550 
	C2013.280273,870.615417 2008.447510,852.309265 2003.476929,834.040588 
	C2000.930908,824.683228 2001.536499,822.377319 2010.096802,817.974976 
	C2029.068359,808.218262 2048.808594,800.753479 2069.685303,795.687012 
	C2095.743896,789.362915 2122.000000,786.558899 2148.672119,786.889038 
	C2176.906250,787.238525 2204.158936,792.191162 2229.622070,805.074768 
	C2248.437500,814.594788 2263.653320,828.127930 2275.752197,846.234131 
M2171.121338,1006.754333 
	C2153.346924,1007.227600 2135.994629,1009.603333 2120.045166,1018.200134 
	C2099.255371,1029.405884 2096.306152,1043.714478 2101.603760,1065.337524 
	C2102.971680,1070.919556 2108.833252,1077.355225 2114.229004,1079.664917 
	C2140.626953,1090.964966 2171.096680,1078.413452 2180.510010,1050.083130 
	C2185.096680,1036.280273 2182.125977,1021.305420 2182.083252,1007.007202 
	C2179.817871,1006.527100 2178.868896,1006.149597 2177.926514,1006.165283 
	C2176.273926,1006.192627 2174.625244,1006.461060 2171.121338,1006.754333 
z"/>
<path fill="#01579B" opacity="1.000000" stroke="none" 
	d="
M327.844299,1032.201660 
	C331.931091,1019.747742 335.180725,1007.847168 339.995178,996.617615 
	C344.845306,985.304993 352.651581,975.598145 361.532532,967.086670 
	C385.466095,944.148926 414.342499,930.763855 446.455139,923.500183 
	C468.585327,918.494446 490.810669,914.838501 513.558594,914.729980 
	C517.498352,914.711182 521.434082,913.844055 525.819641,913.314697 
	C526.050293,902.368774 521.492004,894.634277 512.593445,889.083374 
	C501.760406,882.325745 489.771240,880.346741 477.302460,879.989380 
	C446.299103,879.100952 417.448944,887.274231 389.903839,900.794128 
	C374.488953,908.360168 371.756683,906.718872 367.712006,890.163635 
	C363.386230,872.457825 357.836395,855.050964 352.812592,837.515991 
	C352.354706,835.917847 351.786285,834.350464 351.355164,832.745728 
	C349.395111,825.449524 349.973206,823.552795 356.438110,819.631775 
	C361.246643,816.715332 366.209900,813.966064 371.350220,811.700562 
	C389.338287,803.772522 408.028992,798.304016 427.250305,793.884277 
	C450.494354,788.539612 473.865448,787.023499 497.484650,786.875977 
	C520.996216,786.729126 543.997864,790.806396 565.743286,799.231384 
	C589.725098,808.522827 609.607422,823.748779 624.038086,845.763611 
	C642.541748,873.992065 649.834290,905.323242 650.179260,938.381958 
	C650.704346,988.696228 649.875305,1039.025635 650.531982,1089.336792 
	C650.800110,1109.881226 653.442932,1130.394775 655.026428,1150.920776 
	C655.102661,1151.909424 655.455444,1152.874878 655.556213,1153.863647 
	C656.642517,1164.522949 654.653748,1167.018188 643.660522,1167.078003 
	C614.002808,1167.239502 584.343445,1167.196167 554.685181,1167.097290 
	C546.767639,1167.070923 545.647644,1166.141968 543.458313,1158.607544 
	C541.891418,1153.215332 540.753113,1147.698730 539.381165,1142.063599 
	C530.099731,1148.013550 521.239258,1154.457031 511.696594,1159.646118 
	C493.947052,1169.297607 474.832764,1174.819824 454.514099,1175.052124 
	C444.217255,1175.170044 433.742432,1175.387207 423.643524,1173.743896 
	C405.135803,1170.732422 387.790161,1164.142212 372.714752,1152.505493 
	C338.719788,1126.264526 324.334747,1091.128540 325.866943,1048.862549 
	C326.058594,1043.576294 327.064728,1038.319702 327.844299,1032.201660 
M527.961975,1054.184692 
	C532.394043,1038.552734 529.818542,1022.781189 529.927795,1006.280579 
	C509.376038,1007.020630 490.291443,1008.401062 471.891235,1016.506470 
	C446.692627,1027.606689 445.173431,1047.655518 450.954010,1067.463501 
	C452.875824,1074.048828 458.238525,1078.779541 464.882751,1080.745239 
	C480.797943,1085.453369 496.124969,1085.236572 510.303070,1074.754272 
	C517.418640,1069.493408 522.895264,1063.089111 527.961975,1054.184692 
z"/>
<path fill="#01579A" opacity="1.000000" stroke="none" 
	d="
M2569.423828,800.051025 
	C2579.129883,801.835388 2587.987549,803.267456 2596.673828,805.398926 
	C2630.748535,813.760315 2655.103760,834.472717 2671.095703,865.260559 
	C2683.896484,889.904602 2689.609131,916.343689 2689.690918,944.049927 
	C2689.895264,1013.346741 2690.098633,1082.643555 2690.292236,1151.940430 
	C2690.298828,1154.271118 2690.281982,1156.607422 2690.131348,1158.931763 
	C2689.801270,1164.027344 2687.177734,1166.901245 2681.926270,1167.057861 
	C2679.928467,1167.117432 2677.929199,1167.145752 2675.930420,1167.145996 
	C2644.942871,1167.151001 2613.955322,1167.149536 2582.967773,1167.147217 
	C2581.635010,1167.147095 2580.300293,1167.168823 2578.969727,1167.108765 
	C2568.849365,1166.651367 2567.713379,1165.575684 2567.705811,1155.159668 
	C2567.662598,1094.184082 2567.631836,1033.208374 2567.718994,972.232910 
	C2567.739502,957.803894 2565.426270,943.741760 2561.461914,929.980835 
	C2556.696777,913.441895 2539.506348,902.525635 2520.219971,903.231201 
	C2501.156494,903.928589 2487.771240,913.465637 2478.577881,929.770935 
	C2473.542236,938.702454 2471.478027,948.003784 2471.529297,958.373108 
	C2471.837646,1020.679993 2471.680664,1082.989258 2471.679443,1145.297607 
	C2471.679443,1147.630005 2471.697998,1149.962646 2471.675049,1152.294800 
	C2471.541260,1165.922974 2470.397949,1167.120239 2456.773926,1167.136963 
	C2425.453125,1167.175659 2394.132324,1167.153564 2362.811523,1167.138916 
	C2360.481934,1167.137817 2358.129395,1167.180298 2355.827637,1166.886963 
	C2351.264648,1166.305298 2348.620117,1163.682007 2348.406982,1158.983032 
	C2348.271484,1155.989746 2348.315918,1152.987183 2348.315918,1149.988770 
	C2348.311768,1068.687988 2348.476807,987.386597 2348.207764,906.086731 
	C2348.131836,883.142029 2346.767090,860.202332 2346.039062,837.258850 
	C2345.838379,830.935974 2345.620117,824.604309 2345.738037,818.282837 
	C2345.888672,810.179016 2347.804443,808.087708 2355.710938,808.054810 
	C2385.031982,807.932739 2414.354004,807.934875 2443.675049,808.055786 
	C2451.747559,808.089111 2453.401611,809.516785 2454.796875,817.695679 
	C2455.742920,823.241394 2455.794922,828.936035 2456.351562,834.553650 
	C2456.571289,836.771851 2457.075195,838.961975 2457.769287,843.048523 
	C2461.590820,840.124634 2464.548828,838.283997 2467.000000,835.918091 
	C2484.214111,819.301819 2504.511475,808.908142 2527.958008,803.967590 
	C2541.401611,801.134827 2554.797607,799.441772 2569.423828,800.051025 
z"/>
<path fill="#01579A" opacity="1.000000" stroke="none" 
	d="
M1169.209229,1060.980591 
	C1194.160767,1076.444580 1220.845459,1081.587769 1249.018799,1078.880249 
	C1267.512939,1077.103271 1285.950073,1074.517334 1304.304321,1071.609375 
	C1311.444580,1070.478149 1318.270020,1067.410400 1325.269409,1065.327393 
	C1332.810547,1063.083130 1336.859131,1064.942505 1338.407715,1072.673096 
	C1343.034180,1095.768433 1347.297241,1118.939209 1351.428345,1142.129395 
	C1352.592041,1148.661621 1350.630371,1151.436768 1343.610840,1154.030151 
	C1334.589478,1157.362915 1325.613281,1161.277100 1316.259155,1163.161499 
	C1289.911011,1168.469482 1263.736328,1175.259399 1236.433472,1174.096680 
	C1223.517090,1173.546509 1210.510620,1174.706665 1197.628418,1173.844727 
	C1174.337891,1172.286377 1151.788086,1167.266968 1130.065796,1158.215332 
	C1108.851685,1149.375366 1090.228516,1137.186157 1074.352417,1120.550537 
	C1057.007812,1102.376099 1045.046265,1081.077759 1038.017334,1057.204224 
	C1034.384155,1044.864258 1032.453003,1031.969849 1030.476685,1019.213745 
	C1029.113281,1010.414246 1028.261841,1001.407715 1028.442627,992.519348 
	C1029.139160,958.277039 1035.453369,925.292419 1051.581055,894.613281 
	C1061.558594,875.633301 1073.419312,857.933777 1089.590698,843.855774 
	C1111.434692,824.839233 1136.247437,811.016663 1165.119507,805.438416 
	C1182.101196,802.157532 1199.090210,798.891907 1216.499268,800.030334 
	C1258.223389,802.758728 1296.168091,814.488220 1325.451172,846.462585 
	C1340.454224,862.844299 1351.253296,881.632141 1358.539551,902.636230 
	C1368.017456,929.957520 1372.527100,958.023254 1371.531128,986.842224 
	C1371.119507,998.747986 1368.962402,1010.591003 1367.664551,1022.469727 
	C1367.236572,1026.387329 1364.986572,1028.544922 1361.292969,1029.003174 
	C1357.014771,1029.533936 1352.688599,1029.943970 1348.382935,1029.947998 
	C1286.084106,1030.006836 1223.785400,1029.988525 1161.486572,1029.988647 
	C1157.530518,1029.988647 1153.574585,1029.988525 1148.416138,1029.988525 
	C1150.941528,1043.925537 1159.366577,1052.500610 1169.209229,1060.980591 
M1173.035278,942.010742 
	C1186.656982,942.010742 1200.279175,942.091675 1213.900146,941.987976 
	C1227.642212,941.883423 1241.422729,942.459839 1255.178711,941.577759 
	C1252.502197,906.993591 1232.848755,885.826965 1200.439697,887.922729 
	C1173.159424,889.686890 1147.737793,915.715637 1149.327271,942.010742 
	C1156.522827,942.010742 1163.789307,942.010742 1173.035278,942.010742 
z"/>
<path fill="#01579B" opacity="1.000000" stroke="none" 
	d="
M2909.984863,903.147095 
	C2896.401123,903.146301 2883.813477,903.146301 2870.328369,903.146301 
	C2870.071289,907.895508 2869.716309,911.447327 2869.712158,914.999573 
	C2869.669922,949.332214 2869.427734,983.668152 2869.846436,1017.995728 
	C2869.970703,1028.199951 2870.710205,1038.740845 2873.435791,1048.493652 
	C2878.324951,1065.988281 2887.076660,1071.859863 2905.806885,1071.846558 
	C2914.410889,1071.840454 2923.051758,1070.610840 2931.606689,1069.433472 
	C2940.089355,1068.266113 2943.646729,1070.258057 2943.963379,1078.742554 
	C2944.472412,1092.389404 2944.264648,1106.063843 2944.308838,1119.726807 
	C2944.346191,1131.393188 2944.410889,1143.060791 2944.275879,1154.725830 
	C2944.179199,1163.060913 2943.592041,1163.877563 2935.932129,1165.985352 
	C2919.566650,1170.488647 2903.138916,1174.547119 2885.925049,1174.069580 
	C2874.986572,1173.766113 2863.973145,1174.744263 2853.097656,1173.863647 
	C2826.196777,1171.685303 2801.959473,1162.498535 2782.026123,1143.756958 
	C2770.099121,1132.542969 2763.206543,1118.185303 2758.020508,1102.912231 
	C2752.613281,1086.987915 2750.562500,1070.473022 2750.398926,1053.805054 
	C2749.945068,1007.553345 2749.897949,961.297668 2749.693115,915.043518 
	C2749.678467,911.762817 2749.691162,908.481995 2749.691162,904.335144 
	C2746.033447,903.872070 2743.207764,903.240295 2740.374756,903.204773 
	C2730.043457,903.075195 2719.707764,903.246582 2709.376709,903.109192 
	C2699.978027,902.984314 2698.098145,901.530640 2697.879150,892.143433 
	C2697.490479,875.485840 2697.707275,858.813965 2697.683838,842.148071 
	C2697.673096,834.481567 2697.525391,826.810303 2697.742432,819.149780 
	C2697.997314,810.158691 2700.159912,808.091431 2709.135986,808.025879 
	C2722.099365,807.931152 2735.064209,808.001709 2749.058350,808.001709 
	C2749.297852,804.092712 2749.648193,800.890869 2749.663818,797.687439 
	C2749.730225,784.021362 2749.591309,770.353638 2749.735840,756.688721 
	C2749.845459,746.331604 2750.710449,745.534851 2760.262451,742.860168 
	C2790.992188,734.255188 2821.696045,725.557922 2852.415283,716.916077 
	C2854.015137,716.466064 2855.657471,716.151306 2857.294678,715.854736 
	C2866.944824,714.106506 2869.577637,716.047302 2869.635254,725.782959 
	C2869.773438,749.115112 2869.683838,772.448547 2869.686035,795.781494 
	C2869.686523,799.376465 2869.686279,802.971497 2869.686279,807.997986 
	C2874.237549,807.997986 2877.775146,807.997742 2881.312500,807.997986 
	C2898.978760,807.999146 2916.645752,807.929321 2934.311279,808.030029 
	C2943.920654,808.084778 2946.190674,810.192871 2946.249512,819.748230 
	C2946.397217,843.746887 2946.397217,867.747742 2946.242676,891.746338 
	C2946.183350,900.954224 2944.225586,902.806396 2934.979248,903.069824 
	C2926.985596,903.297607 2918.981201,903.136841 2909.984863,903.147095 
z"/>
<path fill="#01569A" opacity="1.000000" stroke="none" 
	d="
M763.999756,1167.157593 
	C746.345154,1167.156982 729.690430,1167.175659 713.035950,1167.138306 
	C710.379272,1167.132324 707.677429,1167.134888 705.077393,1166.675415 
	C701.047180,1165.962891 698.515564,1163.567627 698.397095,1159.216064 
	C698.324646,1156.552979 698.310791,1153.887695 698.310730,1151.223389 
	C698.307007,990.672913 698.307312,830.122375 698.308289,669.571899 
	C698.308289,667.573364 698.238281,665.570557 698.341797,663.577026 
	C698.773804,655.258667 701.739685,652.234192 709.913452,652.026428 
	C715.572449,651.882568 721.237915,651.993713 726.900513,651.993652 
	C753.880981,651.993286 780.861511,651.960327 807.841919,652.009644 
	C819.723816,652.031372 821.674438,653.976929 821.676086,665.999084 
	C821.699036,828.881226 821.697327,991.763367 821.678772,1154.645508 
	C821.677551,1165.857300 820.519897,1167.026489 808.967773,1167.121704 
	C794.312683,1167.242554 779.655884,1167.155640 763.999756,1167.157593 
z"/>
<path fill="#01579A" opacity="1.000000" stroke="none" 
	d="
M955.985474,651.997314 
	C964.643494,652.000854 972.308899,651.850708 979.965332,652.049561 
	C988.324158,652.266602 991.171997,655.187805 991.645081,663.539795 
	C991.776733,665.864563 991.686340,668.202148 991.686340,670.533875 
	C991.687378,830.092468 991.688232,989.651123 991.685974,1149.209717 
	C991.685730,1166.578125 991.126099,1167.141846 973.723022,1167.148193 
	C944.076416,1167.159058 914.429871,1167.157349 884.783264,1167.140991 
	C881.787964,1167.139282 878.771301,1167.200073 875.802307,1166.880981 
	C870.837463,1166.347290 867.934937,1163.603271 867.789246,1158.408813 
	C867.714539,1155.745972 867.682556,1153.080933 867.682434,1150.416870 
	C867.677551,990.192078 867.678101,829.967285 867.678528,669.742493 
	C867.678528,668.076965 867.643372,666.410095 867.695801,664.746155 
	C868.022705,654.370911 870.329407,652.056458 881.039307,652.023438 
	C905.688965,651.947449 930.338989,651.998108 955.985474,651.997314 
z"/>
<path fill="#01569A" opacity="1.000000" stroke="none" 
	d="
M1852.034668,794.938660 
	C1875.346924,794.940125 1897.666016,794.860413 1919.984131,794.966248 
	C1938.619995,795.054565 1939.678589,796.212280 1939.679077,814.827515 
	C1939.681519,925.754456 1939.682373,1036.681396 1939.678223,1147.608398 
	C1939.677490,1166.558105 1939.084717,1167.148438 1920.018433,1167.156006 
	C1891.037476,1167.167603 1862.056641,1167.166504 1833.075684,1167.147949 
	C1830.081299,1167.146118 1827.060791,1167.209106 1824.098755,1166.854736 
	C1819.566895,1166.312500 1816.901855,1163.571411 1816.465088,1159.004517 
	C1816.212402,1156.360840 1816.312622,1153.680054 1816.312500,1151.015991 
	C1816.306641,1037.757202 1816.304443,924.498474 1816.311279,811.239685 
	C1816.312134,796.561829 1817.386841,795.409973 1832.054443,794.987183 
	C1838.378540,794.804871 1844.711914,794.944397 1852.034668,794.938660 
z"/>
<path fill="#015597" opacity="1.000000" stroke="none" 
	d="
M2965.963867,712.109497 
	C2981.046875,692.411438 3000.860596,682.872803 3024.496338,685.168274 
	C3053.330566,687.968567 3076.291016,706.276428 3082.442383,738.247803 
	C3087.684814,765.496643 3073.835938,794.290222 3050.555420,806.627319 
	C3022.433350,821.530273 2982.263672,815.306030 2963.917725,784.291992 
	C2953.149658,766.088135 2951.972900,747.311035 2957.957031,727.737122 
	C2959.571777,722.455627 2963.035156,717.739258 2965.963867,712.109497 
M3064.432861,732.821289 
	C3062.119629,724.576233 3057.320801,717.878662 3051.427246,711.848145 
	C3038.755859,698.881836 3015.543213,695.266968 2999.660156,703.438171 
	C2976.516113,715.345032 2969.506348,733.329224 2971.565674,756.583496 
	C2973.264160,775.761230 2983.133301,789.478577 3000.322266,796.384399 
	C3018.847900,803.827393 3036.918701,801.195862 3052.419922,787.341614 
	C3058.854980,781.590210 3061.956055,773.845703 3065.114990,766.184631 
	C3069.478271,755.602234 3069.852783,744.904846 3064.432861,732.821289 
z"/>
<path fill="#3F0000" opacity="1.000000" stroke="none" 
	d="
M2073.935303,765.672363 
	C2077.917725,765.784851 2081.900146,765.993896 2085.882568,765.995605 
	C2164.014404,766.028687 2242.145996,766.037659 2321.230713,766.142822 
	C2317.635254,766.823547 2313.087158,767.923828 2308.538330,767.927673 
	C2195.621582,768.020935 2082.704590,767.996704 1969.787720,767.997009 
	C1796.915039,767.997375 1624.042358,768.007507 1451.169678,767.964905 
	C1446.541016,767.963745 1441.912476,767.404419 1436.560059,766.671997 
	C1461.091431,766.162415 1486.346924,766.039429 1511.602295,766.019348 
	C1568.433960,765.974182 1625.265503,765.980042 1683.960205,765.952759 
	C1813.204712,765.955994 1940.586060,765.972839 2067.967529,765.973755 
	C2069.956787,765.973816 2071.946045,765.777283 2073.935303,765.672363 
z"/>
<path fill="#FBCD1F" opacity="1.000000" stroke="none" 
	d="
M2073.851562,764.949646 
	C2071.946045,765.777283 2069.956787,765.973816 2067.967529,765.973755 
	C1940.586060,765.972839 1813.204712,765.955994 1684.885132,765.813904 
	C1684.163086,759.713135 1688.838379,759.118896 1693.085449,758.463440 
	C1707.884521,756.179626 1722.726196,754.174194 1737.529541,751.916748 
	C1747.244141,750.435425 1756.920410,748.702087 1767.874512,746.870850 
	C1762.379028,739.238037 1754.885498,737.843140 1748.794067,734.381775 
	C1742.716431,730.928223 1736.370117,727.949524 1730.166138,724.715637 
	C1723.669067,721.329102 1717.077637,718.098267 1710.757080,714.406311 
	C1704.915161,710.993896 1697.687012,709.843628 1692.882202,704.192261 
	C1695.238403,699.239319 1698.924438,700.531860 1702.454834,701.118103 
	C1726.421143,705.098328 1750.390381,709.060242 1774.365479,712.986816 
	C1775.600220,713.189026 1776.896851,713.012817 1778.506958,713.012817 
	C1779.018311,708.101135 1775.333008,706.277100 1772.966797,703.898499 
	C1757.455078,688.306946 1741.788574,672.869568 1726.255005,657.299622 
	C1723.834351,654.873352 1720.245850,652.847900 1721.452148,647.607483 
	C1729.428589,647.182434 1734.732666,652.956177 1741.119995,655.651062 
	C1747.859375,658.494507 1754.296143,662.072144 1760.794312,665.464783 
	C1767.287598,668.854797 1773.646606,672.502869 1780.150635,675.871582 
	C1786.553711,679.188049 1793.064819,682.295837 1799.528687,685.495239 
	C1800.101318,685.018860 1800.673950,684.542480 1801.246582,684.066101 
	C1800.067383,681.193542 1799.087280,678.218933 1797.676880,675.464783 
	C1787.655273,655.895325 1777.472778,636.407715 1767.534790,616.796204 
	C1765.867188,613.505371 1765.136230,609.739929 1763.853271,605.830505 
	C1769.898193,604.843994 1771.734863,608.628662 1774.143066,611.024414 
	C1789.735107,626.535522 1805.182983,642.191467 1820.714355,657.763733 
	C1822.978760,660.034119 1825.436646,662.111328 1828.829468,663.861755 
	C1826.908691,635.459045 1819.954956,607.941711 1817.122925,580.297974 
	C1822.020874,577.674194 1823.748535,580.571655 1825.206421,583.075073 
	C1827.718018,587.387756 1829.887695,591.902893 1832.129395,596.368896 
	C1840.351562,612.749023 1848.523804,629.154419 1856.767456,645.523804 
	C1858.201172,648.370789 1859.889404,651.089600 1863.300415,653.627197 
	C1864.847290,644.300293 1866.430664,634.979309 1867.930664,625.644958 
	C1869.409302,616.443481 1870.277344,607.106018 1872.383057,598.053711 
	C1874.474854,589.060669 1872.711548,578.904785 1878.954224,570.821167 
	C1884.061401,572.499146 1883.567505,576.136108 1884.048340,579.298950 
	C1887.500488,602.001099 1890.953613,624.703247 1894.475586,647.394653 
	C1894.773804,649.315918 1895.576904,651.158936 1896.550171,654.375366 
	C1898.427979,651.800720 1899.873047,650.269531 1900.805298,648.472351 
	C1911.390137,628.068359 1921.865112,607.607422 1932.457031,587.207153 
	C1934.050537,584.138123 1936.091675,581.301514 1938.171265,577.963013 
	C1943.739380,582.086670 1941.941162,586.568298 1941.292480,590.533630 
	C1937.478271,613.851196 1933.474731,637.137695 1929.577148,660.441772 
	C1929.371094,661.673462 1929.550537,662.969666 1929.550537,665.303162 
	C1938.056152,660.240295 1943.364136,653.047119 1949.476562,646.737183 
	C1961.525024,634.299622 1973.561035,621.847595 1985.798706,609.597778 
	C1987.650269,607.744263 1990.557983,606.945862 1993.317505,605.478638 
	C1995.908813,610.807007 1993.031860,613.775208 1991.521729,616.827271 
	C1982.506836,635.046021 1973.280273,653.160034 1964.265747,671.378967 
	C1962.513428,674.920776 1961.382690,678.770264 1959.834106,683.285034 
	C1959.702881,684.092224 1959.685791,684.459839 1959.685791,684.459839 
	C1959.685791,684.459839 1960.012329,684.017883 1960.012329,684.017944 
	C1973.753052,677.302673 1987.529663,670.659729 2001.221436,663.846191 
	C2010.166138,659.394897 2018.962402,654.646484 2027.878662,650.136902 
	C2030.780273,648.669250 2033.842773,646.971191 2038.084717,650.743225 
	C2035.723755,653.759460 2033.707642,657.017700 2031.049072,659.619507 
	C2015.582275,674.755554 1999.947266,689.719604 1984.416260,704.790405 
	C1982.115234,707.023193 1980.063354,709.512634 1976.552124,713.353638 
	C1980.669556,713.064331 1982.809082,713.072754 1984.895386,712.743164 
	C2009.213867,708.901489 2033.516968,704.959656 2057.849854,701.211914 
	C2060.100098,700.865356 2062.527588,701.669312 2064.872803,701.939026 
	C2065.108154,702.789551 2065.343506,703.640015 2065.579102,704.490540 
	C2062.832275,706.447937 2060.279785,708.786011 2057.307129,710.300598 
	C2038.308228,719.981567 2019.203979,729.455811 2000.169189,739.066711 
	C1997.020020,740.656799 1994.041382,742.584473 1989.399292,745.274414 
	C1992.966553,746.670654 1994.575073,747.652771 1996.294678,747.920105 
	C2018.977661,751.445618 2041.684448,754.818054 2064.362793,758.372070 
	C2068.184570,758.971008 2072.613770,759.110779 2073.851562,764.949646 
z"/>
<path fill="#000101" opacity="1.000000" stroke="none" 
	d="
M1554.965088,1053.025146 
	C1541.723633,1038.640869 1537.518433,1021.300232 1534.315552,1003.472473 
	C1531.770996,989.308777 1532.496216,975.448364 1535.830933,961.441589 
	C1538.522583,950.135620 1540.598145,938.939087 1546.497681,928.495300 
	C1558.701538,906.890503 1576.257935,895.954834 1601.265869,898.066772 
	C1617.350220,899.425232 1629.068237,907.666077 1637.638916,921.191101 
	C1644.523438,932.055115 1646.603516,943.786255 1646.401733,956.395569 
	C1646.092407,975.717957 1646.209351,995.049561 1646.346313,1014.375854 
	C1646.465820,1031.234253 1641.149048,1046.075317 1628.449707,1057.129517 
	C1609.085205,1073.985352 1582.423950,1075.051270 1560.729980,1058.110352 
	C1558.899658,1056.681030 1557.214722,1055.065552 1554.965088,1053.025146 
z"/>
<path fill="#000102" opacity="1.000000" stroke="none" 
	d="
M2172.048340,1006.691406 
	C2174.625244,1006.461060 2176.273926,1006.192627 2177.926514,1006.165283 
	C2178.868896,1006.149597 2179.817871,1006.527100 2182.083252,1007.007202 
	C2182.125977,1021.305420 2185.096680,1036.280273 2180.510010,1050.083130 
	C2171.096680,1078.413452 2140.626953,1090.964966 2114.229004,1079.664917 
	C2108.833252,1077.355225 2102.971680,1070.919556 2101.603760,1065.337524 
	C2096.306152,1043.714478 2099.255371,1029.405884 2120.045166,1018.200134 
	C2135.994629,1009.603333 2153.346924,1007.227600 2172.048340,1006.691406 
z"/>
<path fill="#000203" opacity="1.000000" stroke="none" 
	d="
M527.693726,1054.928955 
	C522.895264,1063.089111 517.418640,1069.493408 510.303070,1074.754272 
	C496.124969,1085.236572 480.797943,1085.453369 464.882751,1080.745239 
	C458.238525,1078.779541 452.875824,1074.048828 450.954010,1067.463501 
	C445.173431,1047.655518 446.692627,1027.606689 471.891235,1016.506470 
	C490.291443,1008.401062 509.376038,1007.020630 529.927795,1006.280579 
	C529.818542,1022.781189 532.394043,1038.552734 527.693726,1054.928955 
z"/>
<path fill="#000102" opacity="1.000000" stroke="none" 
	d="
M1172.045410,942.010742 
	C1163.789307,942.010742 1156.522827,942.010742 1149.327271,942.010742 
	C1147.737793,915.715637 1173.159424,889.686890 1200.439697,887.922729 
	C1232.848755,885.826965 1252.502197,906.993591 1255.178711,941.577759 
	C1241.422729,942.459839 1227.642212,941.883423 1213.900146,941.987976 
	C1200.279175,942.091675 1186.656982,942.010742 1172.045410,942.010742 
z"/>
<path fill="#000407" opacity="1.000000" stroke="none" 
	d="
M3064.791748,733.539490 
	C3069.852783,744.904846 3069.478271,755.602234 3065.114990,766.184631 
	C3061.956055,773.845703 3058.854980,781.590210 3052.419922,787.341614 
	C3036.918701,801.195862 3018.847900,803.827393 3000.322266,796.384399 
	C2983.133301,789.478577 2973.264160,775.761230 2971.565674,756.583496 
	C2969.506348,733.329224 2976.516113,715.345032 2999.660156,703.438171 
	C3015.543213,695.266968 3038.755859,698.881836 3051.427246,711.848145 
	C3057.320801,717.878662 3062.119629,724.576233 3064.791748,733.539490 
M3019.565674,758.566223 
	C3026.697266,761.189270 3027.742676,767.103271 3028.576660,773.739380 
	C3030.385010,788.125000 3033.036133,789.719360 3048.385498,786.503357 
	C3045.887939,774.639160 3043.630859,762.775696 3038.125488,752.671204 
	C3040.964844,747.347290 3044.797607,742.730774 3045.922119,737.528809 
	C3048.424805,725.950806 3040.396484,715.528442 3027.545654,713.643066 
	C3019.784180,712.504333 3011.709473,712.694824 3003.845703,713.262329 
	C2993.888428,713.980896 2993.799072,714.407227 2993.753174,723.890503 
	C2993.665039,742.174622 2993.688965,760.459656 2993.766357,778.743835 
	C2993.778564,781.597717 2994.316162,784.449341 2994.613525,787.328003 
	C2999.418457,787.328003 3003.256836,787.328003 3008.218994,787.328003 
	C3008.218994,777.591614 3008.218994,768.424194 3008.218994,758.167297 
	C3012.226318,758.167297 3015.094727,758.167297 3019.565674,758.566223 
z"/>
<path fill="#FD9700" opacity="1.000000" stroke="none" 
	d="
M1960.005859,684.008667 
	C1960.012329,684.017883 1959.685791,684.459839 1959.685791,684.459839 
	C1959.685791,684.459839 1959.702881,684.092224 1959.840576,684.038086 
	C1959.978394,683.983948 1959.999268,683.999451 1960.005859,684.008667 
z"/>
<path fill="#015699" opacity="1.000000" stroke="none" 
	d="
M3018.764648,758.366760 
	C3015.094727,758.167297 3012.226318,758.167297 3008.218994,758.167297 
	C3008.218994,768.424194 3008.218994,777.591614 3008.218994,787.328003 
	C3003.256836,787.328003 2999.418457,787.328003 2994.613525,787.328003 
	C2994.316162,784.449341 2993.778564,781.597717 2993.766357,778.743835 
	C2993.688965,760.459656 2993.665039,742.174622 2993.753174,723.890503 
	C2993.799072,714.407227 2993.888428,713.980896 3003.845703,713.262329 
	C3011.709473,712.694824 3019.784180,712.504333 3027.545654,713.643066 
	C3040.396484,715.528442 3048.424805,725.950806 3045.922119,737.528809 
	C3044.797607,742.730774 3040.964844,747.347290 3038.125488,752.671204 
	C3043.630859,762.775696 3045.887939,774.639160 3048.385498,786.503357 
	C3033.036133,789.719360 3030.385010,788.125000 3028.576660,773.739380 
	C3027.742676,767.103271 3026.697266,761.189270 3018.764648,758.366760 
M3021.321045,744.811157 
	C3029.166504,741.212402 3031.246826,737.910645 3029.127441,732.422791 
	C3026.492676,725.599609 3017.797607,723.235962 3009.073730,726.802795 
	C3009.073730,732.720947 3009.073730,738.521484 3009.073730,745.113220 
	C3013.197754,745.113220 3016.466309,745.113220 3021.321045,744.811157 
z"/>
<path fill="#00080E" opacity="1.000000" stroke="none" 
	d="
M3020.527832,744.962158 
	C3016.466309,745.113220 3013.197754,745.113220 3009.073730,745.113220 
	C3009.073730,738.521484 3009.073730,732.720947 3009.073730,726.802795 
	C3017.797607,723.235962 3026.492676,725.599609 3029.127441,732.422791 
	C3031.246826,737.910645 3029.166504,741.212402 3020.527832,744.962158 
z"/>
</svg>